# Object Export From Tinkercad Server 2015

mtllib suzanne-pbr-glass.mtl

o obj_0
v 0.3732 		-0.1146 		0.7331
v 0.4188 		-0.0867 		0.617
v 0.3154 		-0.0429 		0.6685
v -0.1426 		-0.6258 		0.8597
v -0.2759 		-0.3685 		0.7971
v -0.3178 		-0.3486 		0.7653
v -0.1056 		-0.5668 		0.8714
v -0.0716 		-0.6258 		0.8907
v -0.0036 		-0.6258 		0.8979
v -0.2291 		-0.3439 		0.8266
v -0.2622 		-0.3608 		0.8051
v -0.0665 		-0.547 		0.8885
v 0.0363 		-0.5272 		0.8277
v 0.0326 		-0.4875 		0.7952
v 0.0207 		-0.4951 		0.8254
v 0.133 		-0.4712 		0.857
v -0.0289 		-0.2329 		0.9254
v -0.0315 		-0.2494 		0.9256
v 0.3625 		-0.019 		0.5486
v -0.0279 		-0.2381 		0.9243
v -0.026 		-0.2047 		0.926
v -0.0268 		-0.2195 		0.9252
v -0.2658 		-0.3626 		0.8027
v -0.0109 		-0.2051 		0.9161
v -0.0106 		-0.2047 		0.9159
v -0.1522 		-0.4875 		0.7145
v -0.2816 		-0.3603 		0.1972
v -0.1767 		-0.5272 		0.7347
v 0.1449 		-0.4478 		0.8268
v -0.3187 		-0.0948 		0.7474
v -0.0249 		-0.2698 		0.9195
v -0.0228 		-0.2603 		0.919
v -0.0531 		-0.2454 		0.9072
v 0.0889 		-0.4239 		0.9164
v -0.2745 		-0.3628 		0.7935
v 0.3776 		-0.4 		0.6255
v 0.411 		-0.281 		0.7102
v -0.2648 		-0.4712 		0.6833
v 0.4338 		-0.2372 		0.6629
v -0.2685 		-0.3919 		0.7784
v -0.2529 		-0.4478 		0.6531
v -0.1795 		-0.0353 		0.8476
v -0.1641 		-0.4951 		0.7447
v -0.2186 		-0.0867 		0.8833
v -0.3282 		-0.3685 		0.1678
v -0.2921 		-0.3919 		0.1926
v -0.2609 		-0.3842 		0.7901
v -0.2515 		-0.3831 		0.7906
v -0.2589 		-0.387 		0.7852
v -0.2639 		-0.3711 		0.7978
v -0.2645 		-0.3792 		0.7905
v -0.2643 		-0.3825 		0.7877
v -0.0337 		-0.2698 		0.9077
v -0.2594 		-0.3867 		0.7852
v -0.0246 		-0.2698 		0.9193
v -0.3147 		-0.1223 		0.8105
v 0.1453 		-0.3131 		0.9478
v 0.159 		-0.2215 		0.9605
v 0.0526 		-0.5429 		0.7646
v 0.0896 		-0.3207 		0.9785
v 0.1052 		-0.2769 		0.9808
v 0.0468 		-0.5587 		0.8323
v -0.2734 		-0.4239 		0.7582
v 0.4455 		-0.2332 		0.5803
v 0.0379 		-0.2769 		0.9824
v -0.2654 		-0.075 		0.8545
v 0.0688 		-0.6223 		0.8509
v -0.0827 		-0.3883 		0.1564
v 0.171 		-0.253 		0.9612
v 0.0072 		-0.372 		0.1299
v 0.0003 		-0.3207 		0.9614
v 0.4832 		-0.1935 		0.5794
v 0.5586 		-0.1579 		0.5679
v -0.0424 		-0.1777 		0.0864
v -0.0991 		0.0405 		0.2415
v -0.1708 		-0.0628 		0.7727
v 0.1951 		-0.1146 		0.1063
v 0.2096 		-0.1899 		1
v 0.5186 		-0.2454 		0.5639
v 0.1046 		-0.2769 		0.9716
v 0.1376 		0.0563 		0.2526
v 0.0889 		-0.3166 		0.9692
v 0.1255 		-0.3347 		0.9505
v 0.1907 		-0.3644 		0.1173
v 0.4575 		-0.253 		0.5811
v -0.1458 		-0.5429 		0.6779
v -0.0732 		-0.1106 		0.7889
v -0.2152 		-0.6223 		0.7269
v -0.2156 		0.0323 		0.5379
v -0.3276 		-0.3403 		0.7413
v -0.3276 		-0.3372 		0.7413
v -0.256 		-0.1345 		0.6298
v -0.3256 		-0.3432 		0.7422
v -0.1872 		-0.5587 		0.7301
v 0.0673 		-0.6101 		0.6743
v -0.0791 		-0.1935 		0.8037
v -0.1302 		-0.166 		0.7859
v 0.4945 		-0.2174 		0.5927
v 0.0468 		-0.3323 		0.9598
v 0.0642 		-0.5785 		0.7567
v -0.23 		-0.0511 		0.7333
v 0.0745 		-0.6538 		0.7522
v -0.2905 		-0.1182 		0.685
v -0.2602 		-0.1263 		0.1846
v 0.5505 		-0.1899 		0.5778
v -0.173 		-0.0551 		0.1744
v -0.02 		0.0563 		0.6536
v 0.0084 		-0.3166 		0.9515
v 0.1465 		-0.3126 		0.9483
v -0.3157 		-0.3685 		0.7398
v 0.1398 		-0.3334 		0.9453
v 0.3098 		-0.1935 		0.8943
v -0.1355 		-0.2332 		0.1115
v -0.3252 		-0.3528 		0.7367
v 0.313 		-0.1818 		0.9704
v -0.3257 		-0.3519 		0.7365
v -0.3255 		-0.3526 		0.7363
v 0.0424 		-0.3405 		0.9709
v -0.0187 		-0.6457 		0.6502
v -0.1056 		-0.1818 		0.8714
v -0.3226 		-0.3538 		0.7396
v -0.1354 		-0.1503 		0.8629
v 0.0117 		-0.3439 		0.9317
v -0.001 		-0.634 		0.6052
v 0.0496 		-0.3608 		0.9411
v 0.0537 		-0.3626 		0.9422
v -0.0598 		-0.7769 		0.8824
v -0.3229 		-0.3564 		0.7296
v 0.066 		-0.3628 		0.9421
v 0.2396 		-0.1543 		0.9563
v 0.0686 		-0.3619 		0.9427
v 0.0937 		-0.3521 		0.9469
v 0.1193 		-0.3417 		0.9515
v 0.0185 		-0.7571 		0.8947
v -0.1706 		-0.1818 		0.8998
v 0.4365 		-0.2967 		0.5719
v 0.1434 		-0.2292 		0.9459
v -0.3393 		-0.1777 		0.0793
v 0.1459 		-0.2307 		0.9446
v -0.1488 		-0.5785 		0.6637
v 0.1475 		-0.2296 		0.9465
v -0.0957 		-0.6101 		0.6032
v 0.144 		-0.2261 		0.9443
v -0.2839 		-0.2057 		0.1608
v 0.1583 		-0.2576 		0.9454
v -0.2163 		-0.2047 		0.8433
v -0.0545 		-0.7647 		0.8892
v -0.1041 		-0.7886 		0.8675
v -0.1531 		-0.6538 		0.6529
v -0.2223 		-0.162 		0.8289
v 0.1155 		-0.3486 		0.9544
v 0.478 		-0.3125 		0.5288
v 0.4662 		-0.3125 		0.5495
v -0.1861 		-0.1899 		0.8537
v 0.4994 		-0.281 		0.5381
v -0.0509 		-0.7489 		0.8908
v 0.4892 		-0.2769 		0.564
v 0.2479 		-0.2098 		0.9774
v 0.0646 		-0.3685 		0.9457
v 0.1826 		-0.2098 		0.9534
v 0.1136 		-0.345 		0.9499
v -0.0739 		-0.8405 		0.8543
v -0.0953 		-0.844 		0.845
v -0.2104 		-0.2047 		0.8461
v -0.0953 		-0.8522 		0.845
v -0.334 		-0.253 		0.1608
v -0.363 		-0.2255 		0.1397
v -0.2067 		-0.2047 		0.8479
v -0.0568 		-0.8166 		0.8747
v -0.0686 		-0.8481 		0.8612
v 0.2034 		-0.2494 		0.9534
v 0.5238 		-0.3685 		0.5398
v 0.4693 		-0.3919 		0.5508
v -0.2125 		-0.2047 		0.829
v -0.2027 		-0.2047 		0.832
v -0.199 		-0.2047 		0.8489
v -0.1454 		-0.7769 		0.845
v -0.1992 		-0.2047 		0.8331
v -0.2021 		-0.2047 		0.8322
v -0.1969 		-0.2047 		0.8315
v -0.1203 		-0.2215 		0.9088
v -0.3344 		-0.3131 		0.7384
v -0.0463 		-0.8242 		0.8793
v -0.3526 		-0.2215 		0.7372
v -0.2344 		-0.2652 		0.1515
v 0.2506 		-0.1701 		0.8864
v -0.2091 		-0.7571 		0.7953
v 0.0719 		-0.3919 		0.927
v 0.4817 		-0.3919 		0.5304
v -0.1011 		-0.7927 		0.8599
v -0.3615 		-0.253 		0.7288
v 0.3268 		-0.3247 		0.8932
v 0.1012 		-0.8522 		0.8431
v 0.4712 		-0.3603 		0.5258
v 0.4589 		-0.3563 		0.5463
v 0.0866 		-0.753 		0.8586
v 0.0517 		-0.3831 		0.923
v 0.0587 		-0.3842 		0.9296
v 0.0606 		-0.387 		0.9247
v 0.0556 		-0.3711 		0.9372
v -0.1537 		-0.7647 		0.8459
v -0.209 		-0.2098 		0.8482
v 0.0609 		-0.3792 		0.9326
v 0.0627 		-0.3825 		0.9304
v 0.0609 		-0.3867 		0.925
v -0.1975 		-0.2195 		0.8507
v -0.1574 		-0.7489 		0.8443
v -0.4149 		-0.1899 		0.7274
v 0.0849 		-0.8802 		0.8315
v -0.2026 		-0.2051 		0.8324
v 0.1625 		-0.2769 		0.9494
v 0.1617 		-0.2726 		0.9487
v 0.0297 		-0.8166 		0.8866
v 0.1621 		-0.2802 		0.9488
v 0.1508 		-0.3072 		0.947
v 0.1594 		-0.2962 		0.9445
v -0.1962 		-0.2603 		0.8434
v 0.1689 		-0.3008 		0.9558
v -0.2018 		-0.2079 		0.8349
v -0.1167 		-0.8405 		0.8357
v -0.1945 		-0.2494 		0.8545
v -0.3356 		-0.3126 		0.7378
v -0.0175 		-0.2769 		0.9537
v -0.1669 		-0.2454 		0.8576
v -0.0481 		-0.781 		0.8526
v -0.3288 		-0.3334 		0.7408
v -0.1424 		-0.8166 		0.8374
v -0.4067 		-0.1543 		0.6742
v -0.125 		-0.8481 		0.8365
v -0.3506 		-0.3364 		0.1407
v -0.0259 		-0.2769 		0.9196
v -0.0057 		-0.2769 		0.9454
v -0.0201 		-0.3062 		0.9179
v -0.018 		-0.3148 		0.9178
v -0.0079 		-0.331 		0.9255
v -0.3318 		-0.2292 		0.7385
v -0.3326 		-0.2307 		0.7357
v -0.3457 		-0.2698 		0.7269
v 0.4307 		-0.3522 		0.534
v -0.0747 		-0.9 		0.7927
v 0.4425 		-0.3522 		0.5133
v -0.335 		-0.2296 		0.7359
v -0.0635 		-0.8323 		0.828
v -0.1529 		-0.8242 		0.8328
v -0.0849 		-0.8364 		0.8186
v 0.1626 		-0.2776 		0.9495
v -0.3311 		-0.2261 		0.7369
v -0.3357 		-0.3125 		0.1556
v -0.342 		-0.2576 		0.727
v -0.2 		-0.2067 		0.8345
v 0.1635 		-0.2769 		0.949
v -0.1721 		-0.2698 		0.8424
v -0.1725 		-0.2698 		0.8426
v -0.1809 		-0.2698 		0.8435
v -0.3458 		-0.2698 		0.7269
v -0.0864 		-0.8802 		0.8225
v -0.3031 		-0.1976 		0.8026
v -0.3564 		-0.281 		0.1336
v -0.1337 		-0.781 		0.8153
v -0.3024 		-0.2047 		0.7925
v -0.2862 		-0.2047 		0.8023
v -0.4267 		-0.2098 		0.6829
v -0.2778 		-0.2047 		0.8033
v -0.2675 		-0.1964 		0.8069
v 0.2509 		-0.2967 		0.9478
v 0.3967 		-0.3802 		0.5675
v -0.2357 		-0.1859 		0.832
v -0.3645 		-0.2098 		0.7146
v 0.1961 		-0.3049 		0.9503
v -0.2379 		-0.1976 		0.8266
v -0.2392 		-0.2047 		0.8233
v 0.0216 		-0.8639 		0.8651
v -0.2274 		-0.2047 		0.8332
v -0.2609 		-0.1818 		0.812
v -0.0102 		-0.872 		0.8512
v -0.2595 		-0.1949 		0.8082
v -0.2417 		-0.2047 		0.8204
v -0.1063 		-0.8323 		0.8093
v 0.2534 		0.072 		0.5712
v -0.1292 		-0.8125 		0.8038
v -0.0264 		-0.3207 		0.9234
v -0.3792 		-0.2494 		0.6991
v 0.0492 		0.1 		0.4776
v 0.4644 		-0.1263 		0.5009
v 0.1968 		-0.372 		0.9376
v -0.0894 		-0.7967 		0.8301
v -0.0347 		-0.2891 		0.9243
v -0.0436 		-0.8125 		0.8411
v -0.1914 		-0.8639 		0.7721
v 0.4096 		-0.0551 		0.4287
v -0.1595 		-0.872 		0.786
v 0.1404 		-0.3519 		0.94
v -0.0238 		-0.2912 		0.918
v -0.0248 		-0.2867 		0.918
v -0.3676 		-0.1701 		0.6166
v -0.4467 		-0.1421 		0.0678
v 0.1405 		-0.3526 		0.9397
v -0.2549 		-0.1579 		0.8062
v -0.0525 		-0.8959 		0.7361
v 0.5911 		-0.1777 		0.4854
v 0.0265 		-0.8802 		0.7577
v 0.4972 		-0.2057 		0.5017
v -0.0325 		-0.3288 		0.9078
v -0.4148 		-0.1935 		0.578
v -0.3595 		-0.2332 		0.1104
v 0.0113 		-0.8919 		0.8168
v -0.4155 		-0.2174 		0.0724
v 0.3151 		-0.3166 		0.8482
v -0.1228 		-0.8802 		0.6925
v -0.0479 		-0.2927 		0.905
v 0.3011 		-0.1935 		0.8202
v -0.1517 		-0.8919 		0.7456
v 0.0938 		-0.7611 		0.7561
v 0.1085 		-0.8639 		0.7715
v -0.4643 		-0.253 		0.0691
v -0.2964 		-0.1777 		0.7746
v -0.4317 		-0.1777 		0.0918
v 0.2689 		-0.1701 		0.7758
v 0.5326 		-0.253 		0.5391
v 0.5673 		-0.2255 		0.5458
v -0.0304 		-0.8084 		0.68
v -0.2329 		-0.8522 		0.6972
v 0.2299 		-0.4 		0.833
v -0.11 		-0.2927 		0.8824
v 0.0288 		-0.7845 		0.7193
v -0.233 		-0.753 		0.7191
v -0.4681 		-0.1818 		0.6294
v -0.0041 		-0.3371 		0.9286
v -0.3852 		-0.2611 		0.1121
v -0.0014 		-0.3386 		0.9288
v -0.0101 		-0.3446 		0.935
v 0.0235 		-0.6737 		0.7125
v -0.3207 		-0.2047 		0.7511
v -0.2872 		-0.2047 		0.7931
v -0.2136 		-0.8802 		0.7012
v 0.4684 		-0.2652 		0.4583
v -0.2115 		-0.8166 		0.7813
v -0.3463 		-0.2698 		0.7227
v -0.4261 		-0.3247 		0.5646
v -0.241 		-0.2296 		0.8561
v -0.1026 		-0.3761 		0.8637
v -0.2771 		-0.2098 		0.8314
v -0.3155 		-0.2296 		0.8017
v -0.0132 		-0.3522 		0.9117
v -0.0261 		-0.6894 		0.669
v -0.4305 		-0.162 		0.0046
v -0.2401 		-0.2332 		0.843
v 0.4253 		-0.2332 		0.3563
v 0.5992 		-0.4437 		0.485
v 0.1385 		-0.3403 		0.9448
v -0.1901 		-0.8639 		0.6412
v 0.1385 		-0.3372 		0.9448
v 0.1431 		-0.3564 		0.9331
v 0.1282 		-0.0948 		0.9425
v -0.1693 		-0.7611 		0.6413
v 0.0415 		-0.0155 		0.9311
v -0.4139 		-0.2255 		0.0467
v 0.5683 		-0.4514 		0.5637
v -0.3476 		-0.2769 		0.7267
v -0.0375 		-0.0353 		0.9096
v 0.5756 		-0.4 		0.545
v 0.5579 		-0.3364 		0.5372
v -0.0987 		-0.7845 		0.6637
v -0.3466 		-0.2726 		0.7268
v 0.5896 		-0.4 		0.5202
v -0.3377 		-0.3072 		0.7338
v -0.3469 		-0.2802 		0.7266
v -0.3421 		-0.2962 		0.7256
v -0.2727 		-0.2174 		0.8203
v 0.5608 		-0.4198 		0.5733
v -0.4926 		-0.2494 		0.0039
v -0.3477 		-0.2776 		0.7267
v -0.3464 		-0.272 		0.7268
v -0.5 		-0.2372 		0.0445
v -0.3564 		-0.3008 		0.7265
v -0.0903 		-0.6737 		0.6628
v 0.1366 		-0.3432 		0.9439
v -0.0309 		-0.166 		0.8292
v -0.3089 		-0.2332 		0.7956
v -0.3164 		-0.2156 		0.7679
v -0.3221 		-0.2211 		0.7562
v -0.3151 		-0.2152 		0.7692
v -0.348 		-0.2769 		0.7257
v -0.4424 		-0.2728 		0.0567
v 0.3549 		-0.4239 		0.6942
v 0.5373 		-0.3125 		0.5367
v -0.355 		-0.4198 		0.6484
v -0.3172 		-0.4 		0.5942
v -0.409 		-0.2967 		0.6597
v 0.1312 		-0.3685 		0.9349
v 0.4549 		-0.4636 		0.5142
v -0.3719 		-0.3049 		0.7023
v 0.4094 		-0.4712 		0.6084
v 0.5667 		-0.281 		0.5366
v -0.0925 		-0.5984 		0.5517
v 0.14 		-0.3528 		0.9397
v -0.1784 		-0.4875 		0.5058
v 0.4856 		-0.4081 		0.5624
v -0.3962 		-0.2927 		0.1073
v -0.364 		-0.372 		0.6929
v 0.1362 		-0.3538 		0.9399
v -0.121 		-0.4992 		0.3285
v -0.0501 		-0.5587 		0.3286
v -0.3726 		-0.3049 		0.1221
v 0.3579 		-0.3883 		0.3488
v -0.0338 		-0.0867 		0.964
v 0.3121 		-0.372 		0.263
v 0.75 		-0.2494 		0.5464
v -0.2823 		-0.4 		0.3374
v 0.3764 		-0.1777 		0.2692
v 0.728 		-0.2372 		0.5806
v -0.2232 		-0.2769 		0.8639
v 0.4552 		-0.4081 		0.5447
v 0.3124 		0.0405 		0.4211
v -0.4666 		-0.372 		0.0546
v -0.3124 		-0.4239 		0.4029
v 0.0831 		-0.1223 		0.9841
v -0.226 		-0.2769 		0.8492
v -0.1944 		-0.2769 		0.846
v -0.3876 		-0.3166 		0.5415
v -0.3589 		-0.1935 		0.5321
v 0.4752 		-0.4117 		0.5888
v -0.4215 		-0.3522 		0.0659
v 0.4639 		-0.4081 		0.5226
v 0.0187 		-0.075 		0.9785
v 0.2203 		-0.4198 		0.8996
v 0.6748 		-0.1421 		0.5573
v 0.4359 		-0.4356 		0.6155
v -0.3064 		-0.1701 		0.5247
v -0.3684 		-0.4 		0.1329
v -0.2599 		-0.4117 		0.2898
v -0.4393 		-0.3603 		0.08
v 0.5845 		-0.2332 		0.5224
v 0.6496 		-0.2174 		0.5373
v -0.2045 		-0.4636 		0.3185
v -0.1581 		0.072 		0.3916
v 0.0067 		-0.0628 		0.8502
v -0.0619 		-0.4514 		0.9298
v -0.3616 		-0.4 		0.1049
v -0.0952 		-0.4636 		0.8978
v -0.3058 		-0.0867 		0.3007
v -0.2624 		-0.4636 		0.2011
v 0.6863 		-0.253 		0.5714
v -0.2934 		-0.4712 		0.3016
v 0.3937 		-0.4117 		0.5751
v 0.1627 		-0.1345 		0.8126
v 0.1959 		0.0323 		0.7175
v -0.3514 		-0.1146 		0.4168
v 0.648 		-0.1777 		0.5631
v -0.2672 		-0.0429 		0.4142
v 0.3353 		-0.4636 		0.5541
v -0.025 		-0.5231 		0.8886
v 0.0749 		-0.0511 		0.8665
v -0.3164 		-0.4081 		0.2123
v -0.4445 		-0.2769 		0.0294
v 0.1501 		-0.1182 		0.8774
v -0.2111 		-0.331 		0.8369
v -0.1987 		-0.3148 		0.8389
v -0.1973 		-0.3062 		0.8405
v -0.4244 		-0.3563 		0.0421
v 0.6016 		-0.2611 		0.5428
v -0.0818 		-0.5272 		0.9166
v -0.0722 		-0.515 		0.9343
v -0.2201 		-0.019 		0.2943
v -0.1966 		-0.3207 		0.8491
v -0.4617 		-0.372 		0
v 0.0996 		-0.5984 		0.6356
v 0.1911 		-0.4875 		0.6671
v -0.1913 		-0.2891 		0.8559
v 0.7056 		-0.162 		0.5006
v -0.0553 		-0.515 		0.9237
v 0.2695 		-0.4992 		0.499
v -0.1757 		-0.4514 		0.8801
v 0.2193 		-0.5587 		0.4462
v -0.1307 		-0.4636 		0.8823
v -0.1948 		-0.2912 		0.8434
v -0.1941 		-0.2867 		0.8442
v -0.283 		-0.4081 		0.2224
v -0.3628 		-0.281 		0.3725
v 0.6657 		-0.2255 		0.518
v -0.0502 		-0.515 		0.9
v 0.0801 		-0.1976 		0.9699
v -0.3268 		-0.4117 		0.2387
v -0.1818 		-0.3288 		0.8426
v 0.0684 		-0.2047 		0.9572
v 0.0748 		-0.2047 		0.9589
v 0.0521 		-0.1964 		0.9464
v 0.0618 		-0.2047 		0.9515
v 0.0128 		-0.1859 		0.9405
v -0.169 		-0.2927 		0.8521
v 0.0211 		-0.2047 		0.9369
v 0.4068 		-0.4041 		0.4359
v -0.1742 		-0.5231 		0.8234
v 0.0179 		-0.1976 		0.9382
v -0.3472 		-0.2372 		0.322
v 0.0061 		-0.2047 		0.9351
v 0.044 		-0.1818 		0.9451
v 0.0248 		-0.2047 		0.9367
v -0.2744 		-0.4081 		0.2004
v 0.0455 		-0.1949 		0.9414
v -0.076 		-0.4793 		0.9236
v -0.0974 		-0.4753 		0.9143
v -0.1715 		-0.515 		0.891
v -0.1528 		-0.5272 		0.8856
v -0.3169 		-0.4356 		0.2869
v -0.0634 		-0.4677 		0.9117
v -0.2158 		-0.3371 		0.8361
v -0.1764 		-0.515 		0.8709
v -0.2179 		-0.3386 		0.8344
v 0.2922 		-0.4753 		0.3246
v -0.2159 		-0.3446 		0.8452
v -0.0597 		-0.4753 		0.8914
v 0.0437 		-0.1579 		0.9365
v -0.3001 		-0.2332 		0.2549
v -0.1758 		-0.4041 		0.1816
v 0.1008 		-0.5943 		0.3461
v -0.3261 		-0.1935 		0.2261
v 0.1611 		-0.4992 		0.1926
v 0.7308 		-0.372 		0.5206
v -0.198 		-0.3522 		0.831
v -0.1218 		-0.5033 		0.9126
v -0.3717 		-0.1579 		0.1618
v -0.2498 		-0.0155 		0.804
v -0.164 		-0.515 		0.8504
v -0.1158 		-0.4951 		0.8973
v -0.1056 		-0.4712 		0.8714
v -0.0201 		-0.4753 		0.1883
v 0.0942 		-0.1777 		0.9451
v -0.3407 		-0.2454 		0.1888
v 0.6791 		-0.2728 		0.5463
v -0.0181 		-0.5587 		0.8916
v -0.1402 		-0.4753 		0.8956
v -0.1616 		-0.4793 		0.8863
v -0.3448 		-0.4437 		0.0729
v -0.1626 		-0.4677 		0.8684
v -0.309 		-0.253 		0.2465
v 0.104 		-0.2047 		0.9568
v -0.343 		-0.2174 		0.2271
v -0.0702 		-0.5389 		0.9088
v 0.0753 		-0.2047 		0.9513
v 0.1277 		-0.2047 		0.9466
v -0.3281 		-0.2769 		0.7917
v -0.3155 		-0.3207 		0.8017
v -0.2816 		-0.2769 		0.8429
v -0.3757 		-0.4514 		0.1516
v 0.0003 		-0.2296 		0.9614
v -0.3726 		-0.1899 		0.1749
v 0.6125 		-0.2927 		0.5476
v 0.0424 		-0.2098 		0.9709
v -0.241 		-0.3207 		0.8561
v -0.1516 		-0.4753 		0.8513
v 0.0896 		-0.2296 		0.9785
v -0.3769 		-0.4198 		0.164
v -0.3215 		-0.2769 		0.7856
v 0.0084 		-0.2332 		0.9515
v -0.3089 		-0.3166 		0.7956
v 0.5859 		-0.3049 		0.5405
v -0.3222 		-0.3347 		0.7551
v -0.1173 		-0.547 		0.9011
v -0.113 		-0.5628 		0.8901
v 0.0468 		-0.2174 		0.9598
v 0.6977 		-0.372 		0.5628
v -0.2727 		-0.3323 		0.8203
v 0.1248 		-0.2211 		0.9512
v -0.253 		-0.3522 		0.2097
v 0.1129 		-0.2156 		0.9552
v 0.0889 		-0.2332 		0.9692
v 0.6582 		-0.3522 		0.5372
v -0.2585 		-0.3522 		0.2331
v 0.1004 		-0.2098 		0.9594
v -0.2401 		-0.3166 		0.843
v -0.1811 		-0.5587 		0.8205
v -0.1956 		-0.6258 		0.8141
v -0.1558 		-0.5389 		0.8714
v -0.2569 		-0.3802 		0.2821
v -0.1448 		-0.547 		0.8543
v 0.6613 		-0.3603 		0.5604
v -0.0789 		-0.1503 		0.8875
v -0.0787 		-0.1818 		0.9399
v -0.2771 		-0.3405 		0.8314
v -0.2881 		-0.2967 		0.2556
v -0.0085 		-0.2047 		0.934
v 0.0053 		-0.162 		0.9282
v -0.0368 		-0.1899 		0.9188
v -0.3184 		-0.3417 		0.7605
v -0.3133 		-0.345 		0.7635
v -0.2973 		-0.3521 		0.7763
v -0.294 		-0.3125 		0.2177
v -0.2885 		-0.3125 		0.1942
v -0.0146 		-0.2047 		0.9316
v -0.3099 		-0.281 		0.1849
v -0.32 		-0.2769 		0.2108
v -0.022 		-0.2047 		0.9286
v -0.0016 		-0.2047 		0.921
v -0.2767 		-0.3619 		0.7919
v 0.6989 		-0.2769 		0.5285
v 0.6762 		-0.3563 		0.5226
v -0.0169 		-0.2098 		0.932
v -0.2971 		-0.3919 		0.2163
v -0.2867 		-0.3563 		0.2208
# 600 vertices

g group_0_11909273

usemtl suzanne
s 0

f 5 	511 	11
f 7 	4 	8
f 8 	12 	7
f 15 	13 	14
f 17 	18 	20
f 2 	19 	3
f 15 	14 	16
f 21 	22 	24
f 21 	24 	25
f 11 	23 	5
f 16 	14 	29
f 20 	24 	22
f 31 	32 	18
f 18 	32 	20
f 24 	20 	32
f 35 	5 	23
f 36 	39 	37
f 26 	38 	41
f 26 	28 	43
f 33 	18 	17
f 33 	17 	22
f 426 	34 	16
f 40 	5 	6
f 45 	46 	27
f 21 	33 	22
f 47 	49 	48
f 2 	1 	39
f 34 	15 	16
f 1 	37 	39
f 50 	51 	47
f 51 	52 	47
f 31 	53 	32
f 49 	47 	54
f 52 	54 	47
f 29 	14 	59
f 53 	55 	32
f 26 	43 	38
f 57 	215 	80
f 53 	31 	55
f 62 	100 	59
f 60 	61 	65
f 44 	42 	66
f 59 	13 	62
f 49 	63 	48
f 100 	62 	67
f 65 	223 	71
f 30 	56 	66
f 65 	549 	546
f 65 	552 	549
f 63 	43 	473
f 40 	49 	54
f 38 	43 	63
f 65 	61 	552
f 62 	13 	531
f 81 	77 	74
f 75 	81 	74
f 83 	57 	80
f 80 	82 	83
f 133 	83 	82
f 75 	283 	81
f 397 	86 	41
f 74 	84 	70
f 61 	60 	82
f 54 	52 	40
f 50 	5 	51
f 40 	52 	5
f 77 	84 	74
f 136 	85 	64
f 51 	5 	52
f 14 	13 	59
f 60 	99 	82
f 90 	91 	93
f 82 	80 	61
f 95 	467 	59
f 126 	129 	99
f 79 	98 	85
f 59 	100 	95
f 129 	131 	99
f 82 	99 	131
f 64 	85 	98
f 84 	518 	70
f 87 	97 	96
f 118 	99 	60
f 86 	94 	28
f 97 	101 	76
f 30 	101 	103
f 98 	72 	64
f 97 	103 	101
f 523 	76 	101
f 87 	92 	97
f 92 	87 	107
f 92 	103 	97
f 94 	88 	573
f 92 	107 	89
f 74 	106 	75
f 108 	99 	118
f 119 	95 	332
f 110 	400 	63
f 218 	109 	83
f 392 	400 	110
f 95 	119 	124
f 94 	573 	572
f 57 	109 	111
f 71 	232 	108
f 86 	28 	26
f 100 	102 	95
f 67 	102 	100
f 80 	567 	61
f 28 	94 	572
f 57 	83 	109
f 392 	110 	117
f 59 	468 	29
f 103 	92 	295
f 105 	98 	79
f 117 	110 	114
f 65 	118 	60
f 71 	118 	65
f 120 	96 	97
f 121 	114 	93
f 114 	116 	93
f 90 	93 	116
f 126 	99 	125
f 123 	125 	99
f 63 	40 	110
f 122 	120 	97
f 79 	320 	105
f 113 	104 	106
f 121 	128 	114
f 117 	114 	128
f 99 	108 	123
f 97 	76 	122
f 121 	93 	128
f 91 	128 	93
f 72 	98 	105
f 73 	72 	105
f 133 	82 	161
f 132 	161 	82
f 131 	132 	82
f 136 	64 	39
f 128 	91 	90
f 128 	90 	116
f 128 	116 	117
f 122 	76 	42
f 150 	135 	44
f 86 	26 	41
f 58 	137 	141
f 141 	137 	139
f 140 	86 	142
f 139 	143 	141
f 140 	88 	94
f 58 	141 	69
f 140 	94 	86
f 286 	225 	190
f 143 	139 	145
f 139 	137 	145
f 147 	148 	127
f 135 	224 	181
f 69 	141 	145
f 143 	145 	141
f 71 	108 	118
f 148 	147 	156
f 140 	149 	88
f 183 	147 	127
f 133 	151 	83
f 150 	154 	135
f 218 	83 	151
f 44 	66 	150
f 79 	157 	155
f 79 	85 	157
f 153 	152 	155
f 135 	154 	224
f 155 	157 	153
f 134 	156 	147
f 151 	132 	159
f 156 	9 	8
f 85 	136 	157
f 134 	9 	156
f 228 	30 	103
f 131 	159 	132
f 159 	131 	129
f 78 	160 	158
f 122 	135 	120
f 136 	153 	157
f 120 	135 	181
f 161 	151 	133
f 158 	160 	171
f 239 	153 	136
f 140 	142 	149
f 163 	165 	162
f 78 	130 	354
f 132 	151 	161
f 78 	158 	130
f 164 	168 	150
f 154 	150 	168
f 130 	158 	115
f 158 	265 	115
f 119 	142 	124
f 395 	124 	142
f 218 	151 	292
f 528 	58 	160
f 152 	386 	155
f 169 	162 	170
f 122 	42 	44
f 122 	44 	135
f 165 	170 	162
f 159 	126 	125
f 30 	208 	56
f 129 	126 	159
f 176 	168 	175
f 164 	175 	168
f 273 	174 	146
f 30 	228 	208
f 160 	58 	69
f 178 	179 	180
f 171 	160 	69
f 127 	169 	183
f 170 	183 	169
f 186 	115 	112
f 123 	331 	125
f 115 	186 	130
f 134 	147 	183
f 311 	186 	112
f 188 	390 	151
f 194 	173 	189
f 148 	190 	127
f 188 	151 	159
f 196 	193 	313
f 194 	195 	173
f 197 	199 	198
f 104 	185 	514
f 148 	201 	177
f 146 	202 	267
f 198 	203 	200
f 148 	156 	201
f 164 	267 	202
f 198 	204 	203
f 202 	154 	168
f 198 	199 	205
f 198 	205 	204
f 202 	146 	164
f 206 	154 	202
f 205 	199 	188
f 4 	207 	8
f 156 	8 	207
f 176 	206 	168
f 202 	168 	206
f 115 	192 	112
f 197 	34 	199
f 34 	188 	199
f 156 	207 	201
f 308 	112 	192
f 207 	187 	201
f 210 	174 	347
f 175 	174 	210
f 173 	195 	239
f 211 	212 	80
f 137 	80 	212
f 217 	210 	347
f 212 	145 	137
f 214 	215 	216
f 80 	215 	214
f 80 	214 	211
f 206 	176 	219
f 210 	219 	176
f 175 	210 	176
f 185 	104 	113
f 220 	165 	163
f 159 	200 	203
f 203 	204 	159
f 159 	204 	188
f 219 	217 	206
f 213 	193 	196
f 205 	188 	204
f 239 	241 	153
f 222 	375 	558
f 221 	206 	217
f 222 	182 	226
f 134 	183 	213
f 224 	324 	181
f 220 	227 	229
f 231 	232 	55
f 213 	196 	134
f 220 	229 	165
f 127 	190 	225
f 194 	189 	172
f 248 	230 	45
f 224 	154 	206
f 194 	172 	152
f 108 	232 	293
f 294 	293 	232
f 231 	294 	232
f 134 	196 	67
f 235 	108 	234
f 328 	108 	235
f 233 	234 	108
f 293 	233 	108
f 280 	259 	227
f 136 	39 	36
f 206 	221 	224
f 136 	36 	266
f 223 	232 	71
f 134 	67 	9
f 238 	236 	249
f 237 	249 	236
f 152 	153 	241
f 242 	236 	184
f 227 	177 	244
f 237 	236 	242
f 266 	239 	136
f 162 	243 	245
f 212 	211 	69
f 211 	246 	69
f 218 	69 	246
f 246 	214 	218
f 244 	177 	201
f 145 	212 	69
f 237 	242 	247
f 163 	162 	245
f 227 	244 	229
f 191 	242 	184
f 216 	218 	214
f 244 	201 	187
f 364 	236 	238
f 249 	237 	247
f 179 	250 	210
f 178 	250 	179
f 219 	210 	250
f 247 	242 	249
f 191 	249 	242
f 239 	195 	241
f 246 	211 	251
f 241 	195 	194
f 252 	253 	180
f 178 	180 	250
f 250 	180 	253
f 214 	246 	251
f 288 	162 	169
f 211 	214 	251
f 254 	217 	250
f 253 	254 	250
f 219 	250 	217
f 375 	372 	191
f 165 	256 	170
f 210 	217 	179
f 180 	179 	217
f 180 	217 	254
f 180 	254 	252
f 191 	255 	249
f 190 	148 	177
f 248 	404 	230
f 260 	261 	257
f 208 	262 	268
f 248 	258 	404
f 218 	216 	215
f 218 	215 	109
f 266 	173 	239
f 288 	169 	225
f 127 	225 	169
f 286 	190 	259
f 266 	413 	173
f 166 	258 	248
f 267 	270 	146
f 146 	270 	271
f 265 	158 	171
f 164 	150 	267
f 305 	258 	166
f 273 	271 	270
f 241 	194 	152
f 144 	185 	442
f 183 	272 	213
f 267 	274 	270
f 265 	171 	269
f 275 	272 	183
f 265 	192 	115
f 213 	272 	193
f 163 	245 	220
f 277 	270 	276
f 273 	270 	277
f 274 	276 	270
f 278 	220 	245
f 68 	515 	113
f 228 	262 	208
f 220 	278 	280
f 170 	275 	183
f 232 	223 	546
f 3 	19 	279
f 170 	256 	275
f 69 	269 	171
f 69 	218 	269
f 227 	220 	280
f 279 	19 	414
f 515 	185 	113
f 209 	193 	272
f 235 	234 	281
f 268 	262 	282
f 229 	256 	165
f 414 	283 	279
f 515 	442 	185
f 256 	229 	291
f 113 	70 	68
f 291 	240 	256
f 74 	70 	113
f 268 	282 	191
f 257 	261 	264
f 263 	264 	261
f 177 	227 	259
f 55 	31 	231
f 18 	287 	31
f 231 	31 	287
f 276 	274 	264
f 285 	265 	269
f 243 	286 	245
f 113 	106 	74
f 257 	264 	274
f 288 	243 	162
f 337 	289 	244
f 244 	289 	291
f 268 	191 	184
f 243 	288 	286
f 287 	281 	233
f 234 	233 	281
f 284 	290 	19
f 292 	269 	218
f 392 	191 	282
f 244 	291 	229
f 275 	240 	306
f 295 	327 	228
f 256 	240 	275
f 294 	231 	287
f 286 	288 	225
f 228 	103 	295
f 298 	150 	66
f 287 	18 	33
f 66 	56 	298
f 269 	292 	297
f 396 	390 	297
f 294 	287 	293
f 295 	429 	421
f 265 	285 	192
f 233 	293 	287
f 177 	259 	190
f 316 	298 	56
f 259 	280 	286
f 167 	305 	166
f 111 	109 	215
f 278 	286 	280
f 240 	299 	306
f 215 	57 	111
f 299 	301 	306
f 309 	299 	312
f 209 	306 	301
f 305 	167 	307
f 308 	37 	311
f 298 	267 	150
f 209 	272 	306
f 272 	275 	306
f 317 	307 	167
f 299 	240 	312
f 316 	56 	208
f 33 	310 	287
f 112 	308 	311
f 312 	335 	309
f 311 	318 	186
f 73 	300 	302
f 192 	323 	308
f 298 	274 	267
f 314 	313 	193
f 37 	1 	311
f 317 	315 	307
f 208 	268 	316
f 281 	310 	303
f 79 	155 	319
f 102 	196 	313
f 274 	316 	257
f 278 	245 	286
f 314 	193 	209
f 289 	312 	291
f 1 	3 	318
f 209 	301 	314
f 312 	289 	335
f 318 	3 	447
f 79 	319 	320
f 316 	274 	298
f 281 	287 	310
f 102 	67 	196
f 291 	312 	240
f 374 	315 	317
f 318 	311 	1
f 33 	181 	324
f 355 	322 	326
f 184 	316 	268
f 310 	33 	324
f 325 	313 	314
f 295 	304 	327
f 322 	337 	326
f 321 	301 	299
f 310 	324 	303
f 327 	262 	228
f 321 	325 	301
f 88 	149 	326
f 123 	108 	330
f 328 	330 	108
f 314 	301 	325
f 304 	295 	421
f 333 	334 	260
f 261 	260 	334
f 159 	125 	331
f 332 	313 	325
f 330 	331 	123
f 263 	261 	334
f 102 	313 	332
f 327 	389 	262
f 271 	273 	146
f 174 	175 	146
f 330 	328 	331
f 164 	146 	175
f 174 	273 	277
f 238 	255 	338
f 244 	187 	337
f 328 	235 	331
f 281 	331 	235
f 102 	332 	95
f 187 	88 	326
f 326 	337 	187
f 323 	192 	426
f 345 	119 	332
f 321 	345 	325
f 174 	369 	347
f 336 	64 	302
f 64 	72 	302
f 72 	73 	302
f 345 	332 	325
f 296 	138 	346
f 289 	337 	322
f 418 	217 	347
f 289 	322 	335
f 197 	344 	34
f 352 	353 	350
f 292 	350 	353
f 297 	292 	353
f 347 	340 	418
f 290 	284 	348
f 357 	305 	307
f 344 	197 	198
f 284 	336 	348
f 198 	200 	344
f 347 	342 	340
f 305 	357 	329
f 355 	351 	322
f 347 	369 	342
f 339 	327 	304
f 331 	344 	159
f 326 	149 	355
f 351 	335 	322
f 138 	466 	346
f 331 	281 	344
f 321 	309 	363
f 321 	299 	309
f 344 	200 	159
f 366 	367 	368
f 379 	369 	263
f 303 	341 	344
f 182 	554 	366
f 367 	366 	554
f 351 	363 	309
f 303 	324 	341
f 376 	345 	363
f 346 	466 	371
f 345 	321 	363
f 303 	344 	281
f 374 	296 	346
f 359 	191 	372
f 364 	191 	359
f 373 	191 	364
f 255 	191 	373
f 351 	355 	363
f 577 	370 	358
f 317 	296 	374
f 238 	249 	255
f 346 	371 	374
f 352 	350 	377
f 363 	355 	376
f 372 	375 	367
f 368 	367 	375
f 355 	149 	376
f 335 	351 	309
f 191 	392 	375
f 379 	382 	380
f 373 	364 	383
f 359 	372 	383
f 383 	338 	373
f 255 	373 	338
f 142 	376 	149
f 385 	37 	308
f 383 	364 	338
f 238 	338 	364
f 378 	87 	96
f 376 	119 	345
f 383 	372 	367
f 264 	263 	369
f 142 	119 	376
f 367 	359 	383
f 307 	384 	357
f 37 	385 	36
f 222 	366 	375
f 378 	446 	87
f 386 	152 	172
f 387 	388 	41
f 323 	468 	385
f 386 	172 	362
f 6 	558 	375
f 343 	369 	379
f 38 	387 	41
f 307 	315 	384
f 368 	375 	366
f 359 	554 	364
f 390 	34 	285
f 387 	38 	63
f 392 	389 	400
f 285 	269 	390
f 369 	343 	342
f 319 	155 	386
f 392 	282 	389
f 41 	388 	397
f 396 	151 	390
f 381 	554 	380
f 395 	142 	86
f 364 	554 	236
f 389 	282 	262
f 319 	386 	394
f 292 	151 	396
f 391 	349 	358
f 236 	381 	184
f 381 	380 	184
f 257 	184 	380
f 380 	382 	257
f 269 	297 	390
f 384 	423 	460
f 260 	257 	382
f 395 	86 	397
f 377 	350 	292
f 377 	292 	396
f 377 	396 	401
f 316 	184 	257
f 34 	390 	188
f 492 	405 	348
f 333 	260 	382
f 357 	399 	329
f 334 	333 	382
f 379 	334 	382
f 297 	353 	396
f 401 	396 	353
f 387 	63 	400
f 334 	379 	263
f 353 	352 	377
f 353 	377 	401
f 365 	172 	398
f 403 	395 	397
f 116 	375 	392
f 369 	174 	277
f 277 	276 	369
f 264 	369 	276
f 397 	402 	403
f 413 	398 	424
f 290 	348 	410
f 252 	254 	253
f 124 	395 	516
f 424 	398 	189
f 516 	395 	403
f 403 	527 	516
f 172 	189 	398
f 324 	490 	484
f 492 	336 	391
f 117 	116 	392
f 327 	339 	389
f 407 	410 	348
f 358 	393 	391
f 329 	258 	305
f 348 	405 	407
f 339 	387 	400
f 339 	400 	389
f 404 	258 	329
f 414 	19 	290
f 366 	222 	226
f 404 	329 	399
f 226 	182 	366
f 409 	416 	479
f 418 	419 	217
f 414 	290 	410
f 339 	304 	420
f 304 	421 	420
f 410 	77 	81
f 413 	422 	398
f 410 	81 	414
f 415 	534 	545
f 414 	81 	283
f 397 	388 	416
f 410 	84 	77
f 413 	428 	422
f 407 	84 	410
f 398 	422 	361
f 424 	189 	173
f 420 	479 	416
f 424 	173 	413
f 73 	427 	300
f 323 	426 	29
f 425 	360 	406
f 426 	16 	29
f 423 	430 	439
f 192 	285 	426
f 92 	89 	429
f 89 	450 	429
f 432 	430 	423
f 92 	429 	295
f 470 	427 	411
f 385 	308 	323
f 387 	339 	388
f 468 	323 	29
f 425 	356 	360
f 320 	319 	433
f 315 	432 	384
f 339 	420 	388
f 426 	285 	34
f 422 	370 	361
f 384 	432 	423
f 416 	388 	420
f 78 	354 	417
f 422 	428 	370
f 397 	435 	402
f 432 	315 	415
f 417 	354 	425
f 450 	89 	436
f 434 	320 	433
f 432 	415 	545
f 425 	354 	356
f 378 	437 	453
f 230 	404 	460
f 449 	105 	320
f 34 	344 	438
f 436 	283 	75
f 435 	444 	442
f 453 	356 	354
f 89 	107 	283
f 435 	416 	409
f 73 	105 	449
f 89 	283 	436
f 435 	397 	416
f 428 	358 	370
f 435 	409 	431
f 428 	393 	358
f 391 	451 	492
f 431 	444 	435
f 460 	439 	230
f 130 	456 	354
f 360 	356 	437
f 445 	428 	413
f 104 	514 	441
f 428 	445 	393
f 446 	447 	107
f 434 	443 	449
f 445 	413 	266
f 344 	341 	438
f 266 	36 	445
f 34 	438 	15
f 447 	283 	107
f 448 	450 	441
f 449 	443 	411
f 452 	13 	15
f 418 	477 	419
f 320 	434 	449
f 357 	384 	455
f 455 	384 	460
f 429 	450 	448
f 459 	571 	458
f 457 	458 	571
f 476 	571 	459
f 429 	448 	421
f 453 	456 	378
f 455 	399 	357
f 427 	73 	449
f 456 	453 	354
f 411 	427 	449
f 453 	437 	356
f 438 	452 	15
f 418 	412 	550
f 423 	439 	460
f 441 	450 	464
f 340 	412 	418
f 399 	460 	404
f 451 	391 	393
f 446 	318 	447
f 451 	445 	36
f 385 	451 	36
f 385 	468 	451
f 455 	460 	399
f 445 	451 	393
f 3 	279 	447
f 458 	457 	465
f 279 	283 	447
f 507 	511 	457
f 394 	461 	433
f 446 	107 	87
f 374 	371 	415
f 319 	394 	433
f 415 	371 	466
f 217 	419 	221
f 469 	221 	419
f 468 	59 	467
f 415 	315 	374
f 454 	499 	46
f 436 	464 	450
f 465 	469 	459
f 436 	75 	464
f 106 	464 	75
f 442 	444 	545
f 446 	378 	456
f 465 	459 	458
f 300 	427 	470
f 472 	474 	510
f 477 	418 	476
f 106 	104 	464
f 318 	446 	186
f 462 	471 	463
f 464 	104 	441
f 411 	408 	470
f 419 	477 	469
f 446 	456 	186
f 224 	221 	469
f 130 	186 	456
f 468 	474 	472
f 434 	433 	480
f 471 	481 	512
f 477 	476 	469
f 459 	469 	476
f 467 	474 	468
f 478 	431 	575
f 461 	480 	433
f 483 	478 	454
f 471 	512 	506
f 485 	486 	482
f 95 	124 	467
f 498 	561 	500
f 519 	349 	300
f 349 	302 	300
f 468 	472 	451
f 43 	28 	493
f 479 	495 	409
f 491 	496 	494
f 490 	465 	484
f 494 	497 	489
f 473 	43 	493
f 302 	349 	391
f 497 	494 	500
f 498 	500 	494
f 496 	498 	494
f 463 	501 	502
f 490 	324 	224
f 478 	499 	454
f 490 	224 	469
f 505 	431 	478
f 398 	361 	365
f 483 	505 	478
f 441 	495 	448
f 463 	471 	501
f 479 	448 	495
f 505 	444 	431
f 489 	513 	583
f 479 	420 	421
f 501 	471 	506
f 506 	502 	501
f 302 	391 	336
f 490 	469 	465
f 492 	348 	336
f 533 	503 	532
f 440 	502 	506
f 479 	421 	448
f 500 	487 	497
f 488 	485 	487
f 482 	487 	485
f 509 	10 	511
f 405 	510 	407
f 10 	11 	511
f 482 	497 	487
f 472 	492 	451
f 503 	508 	504
f 505 	483 	553
f 533 	535 	508
f 472 	405 	492
f 465 	457 	511
f 441 	514 	495
f 513 	528 	417
f 480 	530 	434
f 509 	511 	507
f 515 	68 	402
f 405 	472 	510
f 417 	425 	513
f 512 	452 	438
f 467 	124 	516
f 467 	516 	474
f 341 	324 	484
f 518 	510 	516
f 517 	514 	144
f 452 	512 	481
f 510 	474 	516
f 528 	497 	482
f 462 	463 	521
f 144 	442 	534
f 407 	518 	84
f 408 	519 	470
f 520 	473 	341
f 463 	502 	521
f 407 	510 	518
f 514 	185 	144
f 559 	462 	521
f 442 	545 	534
f 30 	523 	101
f 138 	522 	144
f 520 	47 	48
f 523 	42 	76
f 528 	78 	417
f 523 	66 	42
f 508 	503 	533
f 520 	50 	47
f 430 	483 	454
f 523 	30 	66
f 144 	522 	517
f 440 	525 	502
f 440 	526 	525
f 489 	497 	513
f 138 	296 	522
f 70 	527 	68
f 519 	408 	562
f 63 	473 	520
f 521 	502 	525
f 435 	515 	402
f 440 	512 	526
f 562 	408 	411
f 527 	402 	68
f 506 	512 	440
f 520 	511 	5
f 527 	403 	402
f 484 	520 	341
f 438 	526 	512
f 528 	513 	497
f 465 	511 	520
f 527 	518 	516
f 438 	341 	526
f 576 	524 	493
f 518 	527 	70
f 13 	452 	531
f 5 	50 	520
f 166 	529 	167
f 78 	528 	160
f 581 	495 	514
f 442 	515 	435
f 9 	62 	531
f 534 	466 	138
f 514 	536 	581
f 537 	486 	540
f 485 	540 	486
f 520 	484 	465
f 462 	539 	471
f 144 	534 	138
f 488 	540 	485
f 536 	538 	529
f 415 	466 	534
f 541 	537 	540
f 542 	543 	544
f 536 	514 	538
f 491 	582 	496
f 539 	12 	481
f 530 	443 	434
f 539 	481 	471
f 547 	317 	167
f 533 	532 	535
f 544 	543 	580
f 531 	8 	9
f 550 	544 	580
f 538 	547 	529
f 535 	475 	551
f 551 	524 	508
f 439 	430 	454
f 531 	12 	8
f 550 	412 	544
f 551 	508 	535
f 547 	167 	529
f 12 	531 	452
f 412 	340 	544
f 480 	461 	548
f 340 	342 	544
f 522 	317 	547
f 342 	343 	544
f 9 	67 	62
f 517 	522 	547
f 430 	553 	483
f 544 	343 	542
f 547 	538 	517
f 559 	539 	462
f 432 	553 	430
f 12 	452 	481
f 473 	493 	551
f 359 	367 	554
f 558 	554 	182
f 514 	517 	538
f 553 	432 	545
f 524 	551 	493
f 521 	503 	504
f 557 	386 	362
f 556 	554 	558
f 505 	553 	545
f 559 	560 	539
f 532 	503 	521
f 12 	560 	7
f 545 	444 	505
f 394 	386 	557
f 12 	539 	560
f 522 	296 	317
f 556 	543 	542
f 561 	488 	487
f 535 	532 	475
f 567 	488 	561
f 525 	475 	532
f 487 	500 	561
f 461 	557 	548
f 525 	526 	475
f 594 	555 	561
f 557 	461 	394
f 555 	549 	561
f 542 	554 	556
f 521 	525 	532
f 546 	549 	555
f 526 	551 	475
f 564 	80 	137
f 80 	564 	566
f 80 	566 	567
f 526 	341 	473
f 552 	561 	549
f 552 	567 	561
f 563 	580 	543
f 562 	358 	349
f 473 	551 	526
f 552 	61 	567
f 49 	40 	63
f 520 	48 	63
f 556 	563 	543
f 588 	565 	569
f 566 	58 	570
f 571 	476 	418
f 486 	570 	482
f 573 	88 	187
f 581 	588 	569
f 507 	457 	571
f 482 	570 	58
f 58 	566 	564
f 58 	564 	137
f 528 	482 	58
f 573 	207 	4
f 573 	187 	207
f 10 	509 	571
f 563 	10 	571
f 365 	361 	568
f 570 	486 	537
f 563 	571 	580
f 566 	570 	537
f 537 	541 	566
f 493 	28 	572
f 567 	540 	488
f 508 	574 	504
f 575 	569 	599
f 567 	566 	540
f 541 	540 	566
f 361 	370 	577
f 594 	561 	498
f 571 	418 	550
f 524 	576 	574
f 378 	96 	120
f 379 	380 	554
f 508 	524 	574
f 120 	578 	378
f 568 	361 	577
f 381 	236 	554
f 559 	521 	504
f 581 	569 	575
f 578 	437 	378
f 560 	559 	574
f 504 	574 	559
f 379 	554 	542
f 574 	576 	560
f 576 	7 	560
f 343 	379 	542
f 530 	568 	577
f 437 	578 	360
f 576 	572 	4
f 182 	222 	558
f 577 	443 	530
f 493 	572 	576
f 409 	575 	431
f 576 	4 	7
f 577 	562 	443
f 573 	4 	572
f 23 	11 	563
f 11 	10 	563
f 443 	562 	411
f 494 	489 	582
f 491 	494 	582
f 358 	562 	577
f 583 	579 	584
f 556 	595 	563
f 406 	579 	583
f 425 	406 	583
f 583 	513 	425
f 23 	563 	35
f 579 	33 	584
f 409 	581 	575
f 585 	586 	556
f 556 	586 	587
f 556 	587 	595
f 581 	409 	495
f 556 	558 	585
f 578 	406 	360
f 579 	120 	181
f 507 	571 	509
f 565 	588 	589
f 489 	583 	590
f 362 	172 	365
f 571 	550 	580
f 529 	591 	592
f 584 	593 	583
f 590 	583 	593
f 585 	558 	6
f 586 	585 	6
f 588 	592 	591
f 578 	120 	579
f 584 	33 	21
f 584 	21 	593
f 579 	406 	578
f 588 	591 	589
f 6 	375 	116
f 592 	536 	529
f 6 	587 	586
f 25 	594 	582
f 590 	25 	582
f 593 	25 	590
f 21 	25 	593
f 496 	582 	594
f 498 	496 	594
f 581 	592 	588
f 35 	563 	595
f 579 	181 	33
f 581 	536 	592
f 470 	519 	300
f 35 	595 	5
f 595 	587 	5
f 6 	5 	587
f 519 	562 	349
f 223 	65 	546
f 530 	480 	596
f 110 	6 	114
f 116 	114 	6
f 529 	166 	591
f 55 	232 	32
f 548 	596 	480
f 589 	45 	27
f 530 	596 	597
f 546 	555 	232
f 565 	589 	27
f 597 	568 	530
f 489 	598 	582
f 591 	248 	589
f 20 	598 	17
f 489 	590 	598
f 582 	598 	590
f 548 	597 	596
f 110 	40 	6
f 22 	17 	598
f 166 	248 	591
f 598 	20 	22
f 557 	362 	597
f 45 	589 	248
f 365 	568 	597
f 25 	24 	594
f 24 	555 	594
f 439 	454 	45
f 597 	362 	365
f 24 	32 	555
f 555 	32 	232
f 548 	557 	597
f 64 	336 	284
f 2 	39 	64
f 64 	284 	2
f 575 	599 	478
f 454 	46 	45
f 19 	2 	284
f 3 	1 	2
f 230 	439 	45
f 599 	46 	499
f 599 	499 	478
f 600 	27 	599
f 600 	565 	27
f 569 	565 	600
f 600 	599 	569
f 599 	27 	46
# 1202 faces

 #end of obj_0

o obj_1
v -0.5 		-1 		0.01
v -0.5 		1 		0.01
v -1 		-1 		0.01
v -1 		1 		0.01
v -0.5 		1 		0
v -0.5 		-1 		0
v -1 		1 		0
v -1 		-1 		0
# 8 vertices

g group_1_15277357

usemtl deep_red
s 0

f 603 	601 	602
f 604 	603 	602
f 607 	605 	606
f 608 	607 	606
f 606 	605 	602
f 601 	606 	602
f 607 	608 	603
f 604 	607 	603
f 608 	606 	601
f 603 	608 	601
f 604 	602 	605
f 607 	604 	605
# 12 faces

 #end of obj_1

o obj_2
v 0.7412 		1 		0.8646
v 0.75 		1 		0.75
v -0.0011 		1 		0.75
v 0.715 		1 		0.9765
v 0.672 		1 		1.083
v 0.6132 		1 		1.1818
v 0.5401 		1 		1.2705
v 0.4542 		1 		1.3469
v 0.3577 		1 		1.4094
v 0.2528 		1 		1.4564
v 0.1419 		1 		1.4868
v 0.0277 		1 		1.5
v -0.0872 		1 		1.4956
v -0.2001 		1 		1.4737
v -0.3084 		1 		1.4349
v -0.4094 		1 		1.38
v -0.5008 		1 		1.3103
v -0.5806 		1 		1.2275
v -0.6467 		1 		1.1335
v -0.6978 		1 		1.0306
v -0.7324 		1 		0.921
v -0.75 		1 		0.8075
v -0.75 		1 		0.6925
v -0.7324 		1 		0.579
v -0.6978 		1 		0.4694
v -0.6467 		1 		0.3665
v -0.5806 		1 		0.2725
v -0.5008 		1 		0.1897
v -0.4094 		1 		0.12
v -0.3084 		1 		0.0651
v -0.2001 		1 		0.0263
v -0.0872 		1 		0.0044
v 0.0277 		1 		0
v 0.1419 		1 		0.0132
v 0.2528 		1 		0.0436
v 0.3577 		1 		0.0906
v 0.4542 		1 		0.1531
v 0.5401 		1 		0.2295
v 0.6132 		1 		0.3182
v 0.672 		1 		0.417
v 0.715 		1 		0.5235
v 0.7412 		1 		0.6354
v 0.75 		0.95 		0.75
v 0.7412 		0.95 		0.8646
v -0.0011 		0.95 		0.75
v 0.715 		0.95 		0.9765
v 0.672 		0.95 		1.083
v 0.6132 		0.95 		1.1818
v 0.5401 		0.95 		1.2705
v 0.4542 		0.95 		1.3469
v 0.3577 		0.95 		1.4094
v 0.2528 		0.95 		1.4564
v 0.1419 		0.95 		1.4868
v 0.0277 		0.95 		1.5
v -0.0872 		0.95 		1.4956
v -0.2001 		0.95 		1.4737
v -0.3084 		0.95 		1.4349
v -0.4094 		0.95 		1.38
v -0.5008 		0.95 		1.3103
v -0.5806 		0.95 		1.2275
v -0.6467 		0.95 		1.1335
v -0.6978 		0.95 		1.0306
v -0.7324 		0.95 		0.921
v -0.75 		0.95 		0.8075
v -0.75 		0.95 		0.6925
v -0.7324 		0.95 		0.579
v -0.6978 		0.95 		0.4694
v -0.6467 		0.95 		0.3665
v -0.5806 		0.95 		0.2725
v -0.5008 		0.95 		0.1897
v -0.4094 		0.95 		0.12
v -0.3084 		0.95 		0.0651
v -0.2001 		0.95 		0.0263
v -0.0872 		0.95 		0.0044
v 0.0277 		0.95 		0
v 0.1419 		0.95 		0.0132
v 0.2528 		0.95 		0.0436
v 0.3577 		0.95 		0.0906
v 0.4542 		0.95 		0.1531
v 0.5401 		0.95 		0.2295
v 0.6132 		0.95 		0.3182
v 0.672 		0.95 		0.417
v 0.715 		0.95 		0.5235
v 0.7412 		0.95 		0.6354
# 84 vertices

g group_2_16448250

usemtl light
s 0

f 609 	610 	611
f 612 	609 	611
f 613 	612 	611
f 614 	613 	611
f 615 	614 	611
f 616 	615 	611
f 617 	616 	611
f 618 	617 	611
f 619 	618 	611
f 620 	619 	611
f 621 	620 	611
f 622 	621 	611
f 623 	622 	611
f 624 	623 	611
f 625 	624 	611
f 626 	625 	611
f 627 	626 	611
f 628 	627 	611
f 629 	628 	611
f 630 	629 	611
f 631 	630 	611
f 632 	631 	611
f 633 	632 	611
f 634 	633 	611
f 635 	634 	611
f 636 	635 	611
f 637 	636 	611
f 638 	637 	611
f 639 	638 	611
f 640 	639 	611
f 641 	640 	611
f 642 	641 	611
f 643 	642 	611
f 644 	643 	611
f 645 	644 	611
f 646 	645 	611
f 647 	646 	611
f 648 	647 	611
f 649 	648 	611
f 650 	649 	611
f 610 	650 	611
f 651 	652 	653
f 652 	654 	653
f 654 	655 	653
f 655 	656 	653
f 656 	657 	653
f 657 	658 	653
f 658 	659 	653
f 659 	660 	653
f 660 	661 	653
f 661 	662 	653
f 662 	663 	653
f 663 	664 	653
f 664 	665 	653
f 665 	666 	653
f 666 	667 	653
f 667 	668 	653
f 668 	669 	653
f 669 	670 	653
f 670 	671 	653
f 671 	672 	653
f 672 	673 	653
f 673 	674 	653
f 674 	675 	653
f 675 	676 	653
f 676 	677 	653
f 677 	678 	653
f 678 	679 	653
f 679 	680 	653
f 680 	681 	653
f 681 	682 	653
f 682 	683 	653
f 683 	684 	653
f 684 	685 	653
f 685 	686 	653
f 686 	687 	653
f 687 	688 	653
f 688 	689 	653
f 689 	690 	653
f 690 	691 	653
f 691 	692 	653
f 692 	651 	653
f 610 	609 	609
f 609 	612 	612
f 612 	613 	613
f 613 	614 	614
f 614 	615 	615
f 615 	616 	616
f 616 	617 	617
f 617 	618 	618
f 618 	619 	619
f 619 	620 	620
f 620 	621 	621
f 621 	622 	622
f 622 	623 	623
f 623 	624 	624
f 624 	625 	625
f 625 	626 	626
f 626 	627 	627
f 627 	628 	628
f 628 	629 	629
f 629 	630 	630
f 630 	631 	631
f 631 	632 	632
f 632 	633 	633
f 633 	634 	634
f 634 	635 	635
f 635 	636 	636
f 636 	637 	637
f 637 	638 	638
f 638 	639 	639
f 639 	640 	640
f 640 	641 	641
f 641 	642 	642
f 642 	643 	643
f 643 	644 	644
f 644 	645 	645
f 645 	646 	646
f 646 	647 	647
f 647 	648 	648
f 648 	649 	649
f 649 	650 	650
f 650 	610 	610
f 610 	609 	652
f 610 	652 	651
f 609 	612 	654
f 609 	654 	652
f 612 	613 	655
f 612 	655 	654
f 613 	614 	656
f 613 	656 	655
f 614 	615 	657
f 614 	657 	656
f 615 	616 	658
f 615 	658 	657
f 616 	617 	659
f 616 	659 	658
f 617 	618 	660
f 617 	660 	659
f 618 	619 	661
f 618 	661 	660
f 619 	620 	662
f 619 	662 	661
f 620 	621 	663
f 620 	663 	662
f 621 	622 	664
f 621 	664 	663
f 622 	623 	665
f 622 	665 	664
f 623 	624 	666
f 623 	666 	665
f 624 	625 	667
f 624 	667 	666
f 625 	626 	668
f 625 	668 	667
f 626 	627 	669
f 626 	669 	668
f 627 	628 	670
f 627 	670 	669
f 628 	629 	671
f 628 	671 	670
f 629 	630 	672
f 629 	672 	671
f 630 	631 	673
f 630 	673 	672
f 631 	632 	674
f 631 	674 	673
f 632 	633 	675
f 632 	675 	674
f 633 	634 	676
f 633 	676 	675
f 634 	635 	677
f 634 	677 	676
f 635 	636 	678
f 635 	678 	677
f 636 	637 	679
f 636 	679 	678
f 637 	638 	680
f 637 	680 	679
f 638 	639 	681
f 638 	681 	680
f 639 	640 	682
f 639 	682 	681
f 640 	641 	683
f 640 	683 	682
f 641 	642 	684
f 641 	684 	683
f 642 	643 	685
f 642 	685 	684
f 643 	644 	686
f 643 	686 	685
f 644 	645 	687
f 644 	687 	686
f 645 	646 	688
f 645 	688 	687
f 646 	647 	689
f 646 	689 	688
f 647 	648 	690
f 647 	690 	689
f 648 	649 	691
f 648 	691 	690
f 649 	650 	692
f 649 	692 	691
f 650 	610 	651
f 650 	651 	692
f 651 	652 	652
f 652 	654 	654
f 654 	655 	655
f 655 	656 	656
f 656 	657 	657
f 657 	658 	658
f 658 	659 	659
f 659 	660 	660
f 660 	661 	661
f 661 	662 	662
f 662 	663 	663
f 663 	664 	664
f 664 	665 	665
f 665 	666 	666
f 666 	667 	667
f 667 	668 	668
f 668 	669 	669
f 669 	670 	670
f 670 	671 	671
f 671 	672 	672
f 672 	673 	673
f 673 	674 	674
f 674 	675 	675
f 675 	676 	676
f 676 	677 	677
f 677 	678 	678
f 678 	679 	679
f 679 	680 	680
f 680 	681 	681
f 681 	682 	682
f 682 	683 	683
f 683 	684 	684
f 684 	685 	685
f 685 	686 	686
f 686 	687 	687
f 687 	688 	688
f 688 	689 	689
f 689 	690 	690
f 690 	691 	691
f 691 	692 	692
f 692 	651 	651
# 246 faces

 #end of obj_2

o obj_3
v 0.99 		-1 		0
v 0.99 		-1 		2
v 0.99 		1 		0
v 0.99 		1 		2
v 1 		-1 		2
v 1 		-1 		0
v 1 		1 		2
v 1 		1 		0
# 8 vertices

g group_3_7196387

usemtl blue
s 0

f 695 	693 	694
f 696 	695 	694
f 699 	697 	698
f 700 	699 	698
f 698 	697 	694
f 693 	698 	694
f 699 	700 	695
f 696 	699 	695
f 700 	698 	693
f 695 	700 	693
f 696 	694 	697
f 699 	696 	697
# 12 faces

 #end of obj_3

o obj_4
v 1 		-1 		2
v 1 		-1 		0
v -1 		-1 		2
v -1 		-1 		0
v 1 		-1.01 		0
v 1 		-1.01 		2
v -1 		-1.01 		0
v -1 		-1.01 		2
# 8 vertices

g group_4_16448250

usemtl white
s 0

f 703 	701 	702
f 704 	703 	702
f 707 	705 	706
f 708 	707 	706
f 706 	705 	702
f 701 	706 	702
f 707 	708 	703
f 704 	707 	703
f 708 	706 	701
f 703 	708 	701
f 704 	702 	705
f 707 	704 	705
# 12 faces

 #end of obj_4

o obj_5
v 1 		1.005 		0
v 1 		1.005 		2
v -1 		1.005 		0
v -1 		1.005 		2
v 1 		1.015 		2
v 1 		1.015 		0
v -1 		1.015 		2
v -1 		1.015 		0
# 8 vertices

g group_5_16448250

usemtl white
s 0

f 711 	709 	710
f 712 	711 	710
f 715 	713 	714
f 716 	715 	714
f 714 	713 	710
f 709 	714 	710
f 715 	716 	711
f 712 	715 	711
f 716 	714 	709
f 711 	716 	709
f 712 	710 	713
f 715 	712 	713
# 12 faces

 #end of obj_5

o obj_6
v -1.01 		-1 		0
v -1.01 		-1 		2
v -1.01 		1 		0
v -1.01 		1 		2
v -1 		-1 		2
v -1 		-1 		0
v -1 		1 		2
v -1 		1 		0
# 8 vertices

g group_6_8847241

usemtl green
s 0

f 719 	717 	718
f 720 	719 	718
f 723 	721 	722
f 724 	723 	722
f 722 	721 	718
f 717 	722 	718
f 723 	724 	719
f 720 	723 	719
f 724 	722 	717
f 719 	724 	717
f 720 	718 	721
f 723 	720 	721
# 12 faces

 #end of obj_6

o obj_7
v 0.5 		-1 		0.01
v 0.5 		1 		0.01
v 0 		-1 		0.01
v 0 		1 		0.01
v 0.5 		1 		0
v 0.5 		-1 		0
v 0 		1 		0
v 0 		-1 		0
# 8 vertices

g group_7_15277357

usemtl deep_red
s 0

f 727 	725 	726
f 728 	727 	726
f 731 	729 	730
f 732 	731 	730
f 730 	729 	726
f 725 	730 	726
f 731 	732 	727
f 728 	731 	727
f 732 	730 	725
f 727 	732 	725
f 728 	726 	729
f 731 	728 	729
# 12 faces

 #end of obj_7

o obj_8
v 1 		-1 		0.01
v 1 		1 		0.01
v 0.5 		-1 		0.01
v 0.5 		1 		0.01
v 1 		1 		0
v 1 		-1 		0
v 0.5 		1 		0
v 0.5 		-1 		0
# 8 vertices

g group_8_15308428

usemtl light_red
s 0

f 735 	733 	734
f 736 	735 	734
f 739 	737 	738
f 740 	739 	738
f 738 	737 	734
f 733 	738 	734
f 739 	740 	735
f 736 	739 	735
f 740 	738 	733
f 735 	740 	733
f 736 	734 	737
f 739 	736 	737
# 12 faces

 #end of obj_8

o obj_9
v 0 		-1 		0.01
v 0 		1 		0.01
v -0.5 		-1 		0.01
v -0.5 		1 		0.01
v 0 		1 		0
v 0 		-1 		0
v -0.5 		1 		0
v -0.5 		-1 		0
# 8 vertices

g group_9_15308428

usemtl light_red
s 0

f 743 	741 	742
f 744 	743 	742
f 747 	745 	746
f 748 	747 	746
f 746 	745 	742
f 741 	746 	742
f 747 	748 	743
f 744 	747 	743
f 748 	746 	741
f 743 	748 	741
f 744 	742 	745
f 747 	744 	745
# 12 faces

 #end of obj_9

